<?xml version="1.0" encoding="UTF-8"?>
<svg version="1.1" viewBox="0 0 1600 1600" width="1280" height="1280" xmlns="http://www.w3.org/2000/svg">
<path transform="translate(290 675)" d="m0 0h2.48c2.74-0.01 5.47-0 8.21-0 1.98-0 3.97-0 5.95-0.01 5.45 0 10.9 0 16.4 0.01 5.88-0 11.8-0.01 17.6-0.01h34.6 28.1 2.03 8.12c25.4 0 50.8 0 76.2 0.01h67.6c25.3-0.01 50.7-0.01 76-0.01h8.13 2.03 30 34.3c5.82 0.01 11.6 0.01 17.4 0 5.35 0 10.7 0 16 0.01h5.72c17.2-0.03 34.3 0.59 51.4 1.13v248c-2.54 1.27-4.3 1.12-7.15 1.12-1.65 0-1.65 0-3.33 0.01-1.21-0.01-2.43-0.01-3.69-0.01h-3.9c-3.6 0-7.19 0-10.8-0.01h-11.7c-7.69 0-15.4 0-23.1-0.01-6.35-0.01-12.7-0.01-19-0.02-85-0.03-170-0.27-255-0.53-14.4-0.04-28.8-0.09-43.2-0.13-1.57 0-1.57 0-3.17-0.01-8.19-0.02-16.4-0.04-24.6-0.07-39.2-0.11-78.4-0.23-118-0.34v-248c5.99-0.67 11.6-1.15 17.6-1.13zm73.5 85.9c-4.32 5.53-6.41 10.3-6 17.4 0.64 4.49 1.99 7.35 4.94 10.9 0.7 0.84 1.4 1.69 2.12 2.56 7.88 6.68 17.8 9.09 27.6 11.7 6.18 1.75 11.2 3.68 15.3 8.78 1.14 3.14 0.85 5.77 0 9-2.85 3.82-5.53 5.55-10 7-9.2 0.99-17.4 0.7-25-5-2.71-3.31-3.77-6.93-5-11-1.46-0.09-2.92-0.14-4.38-0.19-1.22-0.05-1.22-0.05-2.46-0.11-0.71 0.1-1.43 0.2-2.16 0.3-2.29 2.71-2.29 2.71-1.72 5.23 2.92 9.44 6.34 14.7 15.1 19.5 9.39 4.44 21.8 5.04 31.6 1.98 7.17-2.92 12-7.13 15.9-13.8 1.96-5.92 1.97-12.6-0.63-18.3-6.89-11.9-22-14.7-34.3-18-5.72-1.62-9.38-2.92-13.1-7.67-1.41-2.82-1.25-4.87-1-8 1.36-3.46 2.64-4.77 5.75-6.82 5.98-2.24 13-1.87 19.2-1.18 3.34 1.52 3.34 1.52 6 3h2c0.27 0.68 0.53 1.36 0.81 2.06 1.35 3.33 2.76 6.63 4.19 9.94 1.46 0.02 2.91 0.04 4.37 0.06 1.22 0.02 1.22 0.02 2.46 0.03 2.22 0.05 2.22 0.05 4.17-1.09-0.46-7.08-2.79-13.7-7.83-18.9-7.41-5.86-14.8-7.68-24-7.57-0.88 0.01-1.76 0.02-2.67 0.03-8.8 0.23-15.2 1.64-21.4 8.16zm193 1.25v2c-0.88 0.34-0.88 0.34-1.78 0.68-5.55 3.28-9 11-11.2 16.9-3.25 12.7-1.85 26.3 4.22 37.9 5.54 9.07 13.7 16.1 24 19.2 13.6 3.23 27.6 2 39.6-5.37 9.11-6.65 15.7-15.5 17.9-26.6 1.72-14.5-0.13-26.7-8.68-38.7-2.44-2.86-2.44-2.86-5-5-0.77-0.68-1.53-1.37-2.31-2.07-16.2-11.7-41-11.9-56.7 1.07zm-108-8v85h10c1.4-1.18 1.4-1.18 1.11-4.51 0-1.56 0-3.13-0.01-4.69-0.01-0.72-0.01-1.45-0.01-2.2 0-2.72-0.02-5.44-0.03-8.17-0.02-6.08-0.04-12.2-0.06-18.4 14.2 0.33 28.4 0.66 43 1-0.06 17.9-0.06 17.9-0.09 23.6-0.01 1.48-0.01 2.95-0.01 4.42-0.01 0.78-0.01 1.55-0.02 2.34 0 1.88 0.06 3.76 0.12 5.64 1.03 1.25 1.03 1.25 3.25 1.13 1.36-0.01 1.36-0.01 2.75-0.01 0.91 0 1.81 0.01 2.75 0.01 2.22 0.12 2.22 0.12 3.25-1.13 0.09-2.62 0.12-5.21 0.11-7.83v-2.48c0-2.72-0.01-5.45-0.01-8.17-0.01-1.88-0.01-3.76-0.01-5.64 0-4.97-0.01-9.93-0.02-14.9-0.01-5.06-0.02-10.1-0.02-15.2-0.01-9.94-0.03-19.9-0.05-29.8h-11l-1 36h-43v-36h-11zm208 1c-0.1 2.58-0.14 5.13-0.13 7.71 0 0.81-0.01 1.62-0.01 2.45v8.05 5.58c0 3.89 0 7.79 0.01 11.7 0 5.01 0 10-0.01 15v11.5 5.54c0 2.58 0 5.15 0.01 7.73 0 0.77-0.01 1.54-0.01 2.34-0.3 3.48-0.3 3.48 1.14 6.38 1.47 0.09 2.96 0.13 4.44 0.12 0.8 0 1.6 0.01 2.43 0.01 2.18 0 2.18 0 4.13-1.13v-27c11.8 0.25 11.8 0.25 15.5 0.36 10.3 0.1 19.3-2.08 26.9-9.39 5.83-6.95 7.16-15.5 6.47-24.4-1.23-7.32-5.18-13.8-10.9-18.5-9.33-5.68-20.3-5.55-30.8-5.41-2.27 0.04-4.55 0.05-6.82 0.05-6.62-0.62-6.62-0.62-12.2 1.24z" fill="#000100"/>
<path transform="translate(243,647)" d="m0 0h1113c1.25 2.5 1.13 4.18 1.13 6.98v3.2 3.56 3.75c0.01 3.45 0 6.9 0 10.3v11.2c0.01 7.28 0.01 14.6 0.01 21.8-0.01 5.91-0.01 11.8-0.01 17.7v2.55c0 1.71 0 3.41 0.01 5.12 0 16-0.01 32-0.01 48.1-0.01 13.8 0 27.5 0 41.3 0.01 16 0.01 31.9 0 47.9v5.1 2.54c0 5.91 0 11.8 0.01 17.7 0 7.2 0 14.4-0.01 21.6v11c0.01 3.98 0 7.95 0 11.9v3.56 3.2 2.79c-0.13 2.06-0.13 2.06-1.13 3.06-2.43 0.1-4.83 0.13-7.26 0.12-0.77 0.01-1.55 0.01-2.35 0.01-2.63 0-5.26 0-7.9-0.01-1.89 0-3.79 0-5.69 0.01-5.27 0-10.5 0-15.8-0.01h-17.1-30.1c-10.8-0.01-21.5-0.01-32.3-0.01h-2.06-10.4c-25.1 0.01-50.2 0-75.2 0-24.8-0.01-49.7-0.01-74.5-0.02h-2.34-21.1-52.5-2.42c-38.8 0-77.6-0.01-116-0.01-13.5-0.01-26.9-0.01-40.4-0.01h-2.53c-38.8-0.01-77.6-0.01-116-0.01-2.52-0.01-5.04-0.01-7.56-0.01h-50.1c-33.2 0-66.4 0-99.7-0.01h-4.74c-48.8 0-97.5-0.01-146-0.01-1.97 0-3.93 0-5.9-0.01-54.6 0-109-0.01-164-0.02v-306zm7 8c-1.22 2.44-1.12 4-1.11 6.73 0 1 0.01 2.01 0.01 3.04 0 1.11 0.01 2.22 0.02 3.37 0 1.17 0 2.34 0.01 3.55 0.01 3.27 0.02 6.54 0.04 9.81 0.02 3.52 0.03 7.04 0.04 10.6 0.02 6.1 0.04 12.2 0.07 18.3 0.04 8.83 0.07 17.6 0.1 26.5 0.06 14.3 0.11 28.6 0.17 42.9 0.06 13.9 0.12 27.8 0.17 41.7 0 0.86 0 1.71 0.01 2.6 0.01 4.29 0.03 8.59 0.05 12.9 0.13 35.7 0.27 71.4 0.42 107 2.98 1.49 6.01 1.13 9.28 1.12h2.31c2.59 0 5.18-0.01 7.77-0.01h5.62c5.18-0.01 10.4-0.01 15.6-0.02 5.62-0.01 11.2-0.01 16.9-0.02 9.87 0 19.8-0.02 29.6-0.03l31.8-0.03c0.67 0 1.34 0 2.03-0.01h10.2c24.7-0.02 49.4-0.05 74.1-0.08 24.5-0.03 48.9-0.05 73.4-0.08h2.3c6.94-0.01 13.9-0.01 20.8-0.02 17.2-0.02 34.5-0.03 51.7-0.05h2.38l115-0.12c13.3-0.02 26.5-0.03 39.8-0.04 0.82-0.01 1.65-0.01 2.49-0.01 38.2-0.04 76.4-0.08 115-0.12h7.44c16.4-0.02 32.9-0.04 49.3-0.05 32.7-0.03 65.4-0.07 98.2-0.1h4.67c48-0.05 96-0.1 144-0.15 1.35 0 2.71 0 4.06-0.01 54.3-0.05 109-0.11 163-0.17v-289h-1098z" fill="#000100"/>
<path transform="translate(1241,755)" d="m0 0c6.23-0.07 12.4-0.13 18.7-0.16 2.11-0.02 4.23-0.04 6.34-0.07 3.05-0.03 6.11-0.05 9.16-0.06 1.4-0.03 1.4-0.03 2.83-0.05 10.6 0 18.5 2.75 26.6 9.53 6.81 8.06 7.49 16.6 6.65 26.8-0.91 6.6-4.18 11.3-9.08 15.6-1.05 0.79-2.11 1.57-3.19 2.38 0.67 3.43 2.02 6.09 3.72 9.13 0.54 0.97 1.08 1.94 1.63 2.94 0.57 1.01 1.13 2.02 1.71 3.05 1.12 2.01 2.24 4.01 3.35 6.01 0.5 0.89 0.99 1.77 1.5 2.69 1.09 2.18 1.09 2.18 1.09 4.18-4 2-8.91 1.45-13.3 1.56-1.05 0.07-2.09 0.13-3.17 0.19-7.52 0.16-7.52 0.16-10.2-2.31-1.33-2.09-2.32-4.16-3.29-6.44-0.67-1.26-1.34-2.52-2.02-3.77-0.6-1.2-1.2-2.4-1.79-3.61-0.47-0.92-0.47-0.92-0.95-1.86-2.24-4.51-2.24-4.51-2.24-6.76-4.95 0.5-4.95 0.5-10 1 0.01 1.58 0.02 3.15 0.04 4.78 0 2.05 0.01 4.1 0.02 6.16 0.01 1.04 0.02 2.08 0.03 3.15 0 1.49 0 1.49 0.01 3 0.01 1.37 0.01 1.37 0.01 2.78-0.11 2.13-0.11 2.13-1.11 3.13-1.62 0.1-3.25 0.13-4.88 0.13-0.98 0-1.96 0.01-2.98 0.01-1.04-0.01-2.07-0.01-3.14-0.02-1.55 0.01-1.55 0.01-3.14 0.02-0.99 0-1.97-0.01-2.98-0.01h-2.76c-2.12-0.13-2.12-0.13-3.12-1.13-0.1-2.56-0.13-5.08-0.11-7.64v-2.42c0-2.66 0-5.32 0.01-7.98 0-1.83 0.01-3.67 0.01-5.51 0-4.84 0.01-9.69 0.02-14.5 0.01-4.94 0.02-9.88 0.02-14.8 0.01-9.7 0.03-19.4 0.05-29.1zm23 19c-0.03 3.48-0.05 6.96-0.06 10.4-0.01 0.99-0.02 1.98-0.03 3.01 0 0.94 0 1.89-0.01 2.86 0 0.87-0.01 1.75-0.01 2.65-0.12 2.03-0.12 2.03 1.11 3.04 6.32 0.3 13 0.29 19-2 3.44-3.63 3.98-7.14 4-12-0.39-2.84-0.39-2.84-2-5-4.45-2.68-8.09-3.46-13.2-3.75-1.83-0.12-1.83-0.12-3.7-0.23-2.97-0.25-2.97-0.25-5.05 0.98z" fill="#000100"/>
<path transform="translate(849,755)" d="m0 0c3.81-0.03 7.62-0.05 11.4-0.06 1.09-0.01 2.17-0.02 3.3-0.03 1.03 0 2.07 0 3.13-0.01 0.96 0 1.92-0.01 2.91-0.01 2.22 0.11 2.22 0.11 3.22 1.11 0.09 2.07 0.11 4.15 0.1 6.22-0.01 1.26-0.01 2.52-0.01 3.82l-0.03 4.02c0 1.35-0.01 2.69-0.01 4.04-0.01 3.3-0.03 6.6-0.05 9.9 1.44 0.02 2.88 0.03 4.32 0.05 1.2 0.01 1.2 0.01 2.43 0.02 2.85-0.09 4.79-0.62 7.25-2.07 2.46-2.87 3.76-5.62 5.01-9.17 0.52-1.46 0.52-1.46 1.05-2.95 0.35-1.01 0.7-2.03 1.06-3.07 0.71-2.01 1.42-4.03 2.14-6.04 0.31-0.89 0.62-1.78 0.94-2.7 0.8-2.07 0.8-2.07 1.8-3.07 1.85-0.09 3.71-0.11 5.57-0.1 1.12 0.01 2.25 0.01 3.4 0.01 1.19 0.01 2.37 0.02 3.59 0.03 1.19 0 2.38 0.01 3.6 0.01 2.95 0.01 5.89 0.03 8.84 0.05-2.29 7.19-5.02 14.1-7.94 21.1-0.43 1.04-0.86 2.08-1.3 3.15-1.89 4.51-3.79 8.92-6.14 13.2-1.82 3.32-1.82 3.32-1.55 6.19 1.14 2.9 2.39 5.66 3.81 8.44 0.29 0.59 0.59 1.17 0.89 1.78 1.97 3.85 4.04 7.64 6.14 11.4 0.5 0.9 1 1.79 1.51 2.72 1 1.79 2.01 3.57 3.02 5.35 0.46 0.83 0.92 1.65 1.4 2.49 0.62 1.1 0.62 1.1 1.26 2.23 0.9 1.95 0.9 1.95 0.9 4.95h-26c-1.53-2.89-3.05-5.77-4.62-8.75-0.76-1.41-0.76-1.41-1.53-2.85-1.98-3.71-3.91-7.38-5.46-11.3-0.44-1.06-0.88-2.13-1.33-3.22-0.34-0.94-0.68-1.87-1.02-2.83-3.48-3.51-8.29-2.95-13-3.05 0.01 1.4 0.01 1.4 0.02 2.83 0.01 3.45 0.03 6.91 0.03 10.4 0.01 1.5 0.02 2.99 0.03 4.49 0.01 2.15 0.01 4.29 0.02 6.44 0.01 1.94 0.01 1.94 0.01 3.92-0.11 2.96-0.11 2.96-1.11 3.96-1.62 0.1-3.25 0.13-4.88 0.13-0.98 0-1.96 0.01-2.98 0.01-1.04-0.01-2.07-0.01-3.14-0.02-1.55 0.01-1.55 0.01-3.14 0.02-0.99 0-1.97-0.01-2.98-0.01h-2.76c-2.12-0.13-2.12-0.13-3.12-1.13-0.1-2.56-0.13-5.08-0.11-7.64v-2.42c0-2.66 0-5.32 0.01-7.98 0-1.83 0.01-3.67 0.01-5.51 0-4.84 0.01-9.69 0.02-14.5 0.01-4.94 0.02-9.88 0.02-14.8 0.01-9.7 0.03-19.4 0.05-29.1z" fill="#000100"/>
<path transform="translate(1086,755)" d="m0 0c5.83-0.05 11.7-0.09 17.5-0.11 1.99-0.01 3.97-0.02 5.95-0.04 2.86-0.03 5.72-0.04 8.58-0.05 0.88-0.01 1.76-0.02 2.66-0.03 9.33 0 18.4 1.8 25.5 8.18 6.87 7.21 8.92 13.2 9.2 23.1-0.24 9.31-2.8 16.2-9.38 22.9-10.6 8.41-23.1 8.34-36 9-0.03 0.57-0.05 1.14-0.08 1.73-0.11 2.57-0.23 5.14-0.36 7.71-0.04 0.9-0.08 1.79-0.12 2.72-0.04 0.85-0.08 1.71-0.12 2.59-0.04 0.79-0.08 1.58-0.11 2.39-0.21 1.86-0.21 1.86-1.21 2.86-1.55 0.1-3.1 0.13-4.66 0.13-1.41 0-1.41 0-2.84 0.01-1.49-0.01-1.49-0.01-3-0.02-0.99 0.01-1.98 0.01-3 0.02-0.94 0-1.88-0.01-2.84-0.01h-2.63c-2.03-0.13-2.03-0.13-3.03-1.13-0.1-2.56-0.13-5.08-0.11-7.64v-2.42c0-2.66 0-5.32 0.01-7.98 0-1.83 0.01-3.67 0.01-5.51 0-4.84 0.01-9.69 0.02-14.5 0.01-4.94 0.02-9.88 0.02-14.8 0.01-9.7 0.03-19.4 0.05-29.1zm23 20c-0.1 1.62-0.13 3.25-0.13 4.88 0 0.98-0.01 1.96-0.01 2.98 0.01 1.04 0.01 2.07 0.02 3.14-0.01 1.04-0.01 2.07-0.02 3.14 0 0.99 0.01 1.97 0.01 2.98v2.76c-0.11 2.11-0.11 2.11 1.13 3.12 6.66 0.6 12.2 0.4 18-3 3.06-2.96 3.83-5.77 4-10-1.2-3.95-2.11-6.3-5.38-8.88-3.96-1.69-14.1-4.64-17.6-1.12z" fill="#000100"/>
<path transform="translate(942 755)" d="m0 0c0.99 0 1.99 0 3.01 0.01h3.4c1.82 0 1.82 0 3.69 0.01 1.86 0 1.86 0 3.76 0.01 3.31 0 6.62 0.01 9.92 0.02 3.37 0.01 6.74 0.02 10.1 0.02 6.62 0.01 13.2 0.03 19.8 0.05v18c-15.8 0.5-15.8 0.5-32 1v12c9.57 0.33 19.1 0.66 29 1v18h-30v14h34c0.5 8.91 0.5 8.91 1 18-2.59 1.3-4.46 1.12-7.36 1.11h-3.4c-1.22 0-2.43-0.01-3.68-0.01-1.24 0-2.48 0-3.76-0.01-3.3 0-6.6-0.01-9.89-0.02-3.37-0.01-6.73-0.02-10.1-0.02-6.6-0.01-13.2-0.03-19.8-0.05-1.52-3.05-1.13-6.21-1.13-9.55v-2.37c-0.01-2.58 0-5.16 0-7.74v-5.36-11.3c0.01-4.81 0.01-9.63 0-14.4v-11.1-5.33c-0.01-2.48 0-4.96 0-7.43v-2.25c0.02-6.12 0.02-6.12 3.38-6.3z" fill="#000100"/>
<path transform="translate(1013,755)" d="m0 0c7.28-0.02 14.6-0.04 21.8-0.05 3.38-0.01 6.77-0.01 10.2-0.03 3.88-0.01 7.77-0.01 11.6-0.02 1.22 0 2.44-0.01 3.7-0.01h3.4c0.99-0.01 1.98-0.01 3-0.01 2.25 0.12 2.25 0.12 3.25 1.12 0.07 2.86 0.09 5.7 0.06 8.56-0.02 2.79-0.04 5.57-0.06 8.44-16.3 0.5-16.3 0.5-33 1v12c0.87 0.03 1.75 0.05 2.65 0.08 3.23 0.09 6.46 0.19 9.69 0.29 1.39 0.05 2.79 0.09 4.19 0.13 2.01 0.05 4.02 0.12 6.03 0.18 1.21 0.04 2.42 0.08 3.66 0.11 2.78 0.21 2.78 0.21 3.78 1.21 0.1 2.68 0.14 5.32 0.12 8 0.01 1.13 0.01 1.13 0.02 2.27-0.01 5.6-0.01 5.6-1.14 6.73-2.14 0.16-4.29 0.25-6.44 0.32-1.96 0.06-1.96 0.06-3.96 0.12-1.39 0.04-2.77 0.08-4.16 0.12-1.4 0.05-2.79 0.09-4.18 0.13-3.42 0.11-6.84 0.21-10.3 0.31v12l34 1c0.02 2.95 0.04 5.9 0.06 8.94 0.01 0.93 0.02 1.86 0.03 2.82 0 0.73 0.01 1.45 0.01 2.2s0.01 1.5 0.01 2.27c-0.11 1.77-0.11 1.77-1.11 2.77-1.74 0.1-3.49 0.13-5.24 0.13-1.12 0-2.23 0.01-3.39 0.01-1.21 0-2.43-0.01-3.68-0.01-1.24 0-2.48 0-3.76 0.01-2.62 0-5.25 0-7.88-0.01-3.37-0.01-6.74 0-10.1 0-3.2 0.01-6.41 0.01-9.62 0-1.21 0-2.43 0.01-3.68 0.01-1.68-0.01-1.68-0.01-3.39-0.01h-3c-2.24-0.13-2.24-0.13-3.24-1.13-0.1-2.56-0.13-5.08-0.11-7.64v-2.42c0-2.66 0-5.32 0.01-7.98 0-1.83 0.01-3.67 0.01-5.51 0-4.84 0.01-9.69 0.02-14.5 0.01-4.94 0.02-9.88 0.02-14.8 0.01-9.7 0.03-19.4 0.05-29.1z" fill="#000100"/>
<path transform="translate(1170 755)" d="m0 0c0.99 0 1.99 0 3.01 0.01h3.4c1.82 0 1.82 0 3.69 0.01 1.86 0 1.86 0 3.76 0.01 3.31 0 6.62 0.01 9.92 0.02 3.37 0.01 6.74 0.02 10.1 0.02 6.62 0.01 13.2 0.03 19.8 0.05v18c-15.8 0.5-15.8 0.5-32 1l-1 13h30v18h-30v13l34 1c0.02 2.95 0.05 5.9 0.07 8.94 0.01 0.93 0.01 1.86 0.02 2.82 0.01 0.73 0.01 1.45 0.01 2.21 0.01 0.74 0.01 1.49 0.02 2.26-0.12 1.77-0.12 1.77-1.12 2.77-1.75 0.09-3.5 0.12-5.25 0.11h-3.4c-1.83 0-1.83 0-3.69-0.01-1.25 0-2.49 0-3.77-0.01-3.3 0-6.61-0.01-9.91-0.02-3.38-0.01-6.75-0.02-10.1-0.02-6.62-0.01-13.2-0.03-19.9-0.05-0.72-20.4-1.1-40.8-1.12-61.2 0-1.03-0.01-2.06-0.01-3.12v-8.8c0-0.88 0-1.77-0.01-2.68 0.03-7.15 0.03-7.15 3.39-7.33z" fill="#000100"/>
<path transform="translate(603,768)" d="m0 0c7.28 5.05 12.4 11.2 14 20 0.73 11.5 0.54 21.1-6.5 30.8-6.12 6.59-15 9.65-23.7 10.4-8.39 0.2-16.2-1.82-22.8-7.2-7.56-7.27-10.6-15.2-11.1-25.7 0.31-11.2 4.17-18.3 11.8-26.1 11-8.41 26.4-8.71 38.3-2.25z" fill="#000100"/>
<path transform="translate(668,765)" d="m0 0c3.11-0.04 6.23-0.08 9.44-0.12 0.96-0.02 1.92-0.04 2.91-0.06 6.86-0.04 13.5 0.34 19.5 3.87 4.91 5.35 5.69 10.6 5.47 17.6-0.55 4.16-1.79 6.33-4.35 9.66-4.72 3.54-8.86 4.13-14.6 4.1-0.97 0-1.93-0.01-2.92-0.01-1.83-0.01-1.83-0.01-3.69-0.03-3.88-0.02-7.75-0.04-11.8-0.06v-35z" fill="#000100"/>
</svg>
